<svg xmlns="http://www.w3.org/2000/svg" width="200" height="200"><defs><style>.c{fill:#fff}.d{fill:#2c0f31}</style></defs><g transform="translate(40 40)"><circle cx="58.248" cy="58.248" r="58.248" transform="translate(2.424 2.226)" style="fill:#f8655b"/><circle class="c" cx="11.496" cy="11.496" r="11.496" transform="translate(19.285 39.014)"/><circle class="c" cx="11.496" cy="11.496" r="11.496" transform="translate(49.942 17.554)"/><circle class="c" cx="11.496" cy="11.496" r="11.496" transform="translate(77.533 39.014)"/><circle class="c" cx="11.496" cy="11.496" r="11.496" transform="translate(66.803 72.736)"/><circle class="c" cx="11.496" cy="11.496" r="11.496" transform="translate(31.548 72.736)"/><path class="d" d="M60 120a60.031 60.031 0 1 1 33.115-9.981l-4.9 3.231h31.731V120ZM60 6.75A53.25 53.25 0 1 0 113.25 60 53.028 53.028 0 0 0 60 6.75Z"/><path class="d" d="M60 63.404a3.4 3.4 0 0 1-3.4-3.346 3.5 3.5 0 0 1 .981-2.423 3.366 3.366 0 0 1 2.365-.981 3.41 3.41 0 0 1 3.4 3.4 3.5 3.5 0 0 1-.981 2.423 3.635 3.635 0 0 1-2.365.927ZM59.997 42.808a13.673 13.673 0 1 1 13.676-13.673 13.665 13.665 0 0 1-13.676 13.673Zm0-20.6a6.923 6.923 0 1 0 6.923 6.923 6.943 6.943 0 0 0-6.923-6.919ZM30.634 64.154a12.9 12.9 0 0 1-4.212-.692 13.462 13.462 0 0 1-7.962-6.808 13.61 13.61 0 0 1 12.117-19.846 13.151 13.151 0 0 1 4.212.692 13.657 13.657 0 0 1 7.962 6.808 13.653 13.653 0 0 1-12.117 19.846Zm0-20.6a6.648 6.648 0 1 0 2.135.288 9.049 9.049 0 0 0-2.135-.284ZM41.827 98.654a13.848 13.848 0 0 1-8.019-2.6 13.693 13.693 0 0 1-3.058-19.1 13.68 13.68 0 0 1 19.1-3.058 13.618 13.618 0 0 1 5.477 8.952 13.761 13.761 0 0 1-2.423 10.154 13.563 13.563 0 0 1-11.077 5.652Zm0-20.6a6.924 6.924 0 1 0 6.75 5.827 6.8 6.8 0 0 0-2.769-4.5 6.362 6.362 0 0 0-3.981-1.323ZM78.289 98.596a13.717 13.717 0 0 1-10.962-5.538 13.59 13.59 0 0 1 10.9-21.635 13.581 13.581 0 0 1 8.081 24.52 13.253 13.253 0 0 1-8.019 2.653Zm-.115-20.538a6.774 6.774 0 0 0-4.038 1.327 6.872 6.872 0 0 0 4.037 12.458 6.774 6.774 0 0 0 4.038-1.327 6.973 6.973 0 0 0 1.557-9.631 7.134 7.134 0 0 0-5.595-2.827ZM89.369 64.154a15.664 15.664 0 0 1-2.827-.288 11.642 11.642 0 0 1-3.346-1.212 13.859 13.859 0 0 1-6.808-7.962 13.443 13.443 0 0 1 .808-10.442 13.617 13.617 0 0 1 12.173-7.442 13.365 13.365 0 0 1 6.173 1.5 13.859 13.859 0 0 1 6.808 7.962 13.443 13.443 0 0 1-.808 10.442 13.593 13.593 0 0 1-12.173 7.442Zm0-20.6a6.937 6.937 0 0 0-3.173 13.1 6.7 6.7 0 0 0 3.115.75 6.922 6.922 0 0 0 5.25-11.423 6.129 6.129 0 0 0-2.135-1.673 6.009 6.009 0 0 0-3.057-.75Z"/></g></svg>